<svg width="56" height="56" viewBox="0 0 56 56" fill="none" xmlns="http://www.w3.org/2000/svg">
<path d="M50.6667 4H5.33333C4.97971 4 4.64057 4.14048 4.39052 4.39052C4.14048 4.64057 4 4.97971 4 5.33333V50.6667C4 51.0203 4.14048 51.3594 4.39052 51.6095C4.64057 51.8595 4.97971 52 5.33333 52H50.6667C51.0203 52 51.3594 51.8595 51.6095 51.6095C51.8595 51.3594 52 51.0203 52 50.6667V5.33333C52 4.97971 51.8595 4.64057 51.6095 4.39052C51.3594 4.14048 51.0203 4 50.6667 4ZM22.6667 10.6667C22.6667 10.9304 22.5885 11.1882 22.442 11.4074C22.2955 11.6267 22.0872 11.7976 21.8436 11.8985C21.5999 11.9994 21.3319 12.0258 21.0732 11.9744C20.8146 11.9229 20.577 11.7959 20.3905 11.6095C20.2041 11.423 20.0771 11.1854 20.0256 10.9268C19.9742 10.6681 20.0006 10.4001 20.1015 10.1564C20.2024 9.91279 20.3733 9.70455 20.5926 9.55804C20.8118 9.41153 21.0696 9.33333 21.3333 9.33333C21.687 9.33333 22.0261 9.47381 22.2761 9.72386C22.5262 9.97391 22.6667 10.313 22.6667 10.6667ZM17.3333 10.6667C17.3333 10.9304 17.2551 11.1882 17.1086 11.4074C16.9621 11.6267 16.7539 11.7976 16.5102 11.8985C16.2666 11.9994 15.9985 12.0258 15.7399 11.9744C15.4812 11.9229 15.2437 11.7959 15.0572 11.6095C14.8707 11.423 14.7437 11.1854 14.6923 10.9268C14.6408 10.6681 14.6672 10.4001 14.7682 10.1564C14.8691 9.91279 15.04 9.70455 15.2592 9.55804C15.4785 9.41153 15.7363 9.33333 16 9.33333C16.3536 9.33333 16.6928 9.47381 16.9428 9.72386C17.1929 9.97391 17.3333 10.313 17.3333 10.6667ZM10.6667 9.33333C10.9304 9.33333 11.1882 9.41153 11.4074 9.55804C11.6267 9.70455 11.7976 9.91279 11.8985 10.1564C11.9994 10.4001 12.0258 10.6681 11.9744 10.9268C11.9229 11.1854 11.7959 11.423 11.6095 11.6095C11.423 11.7959 11.1854 11.9229 10.9268 11.9744C10.6681 12.0258 10.4001 11.9994 10.1564 11.8985C9.91279 11.7976 9.70455 11.6267 9.55804 11.4074C9.41153 11.1882 9.33333 10.9304 9.33333 10.6667C9.33333 10.313 9.47381 9.97391 9.72386 9.72386C9.97391 9.47381 10.313 9.33333 10.6667 9.33333ZM49.3333 49.3333H6.66667V17.3333H24C24.1755 17.3343 24.3494 17.3007 24.5119 17.2344C24.6743 17.168 24.8221 17.0702 24.9467 16.9467L29.88 12H49.3333V49.3333Z" fill="#01A3E8"/>
<path d="M19.053 25.7201C18.8032 25.4717 18.4653 25.3323 18.113 25.3323C17.7608 25.3323 17.4229 25.4717 17.173 25.7201L11.8397 31.0534C11.7147 31.1773 11.6155 31.3248 11.5479 31.4873C11.4802 31.6498 11.4453 31.824 11.4453 32.0001C11.4453 32.1761 11.4802 32.3504 11.5479 32.5128C11.6155 32.6753 11.7147 32.8228 11.8397 32.9467L17.173 38.2801C17.2974 38.4035 17.4448 38.5013 17.6069 38.5677C17.769 38.6342 17.9426 38.6681 18.1178 38.6675C18.293 38.6669 18.4663 38.6317 18.6279 38.5641C18.7895 38.4965 18.9363 38.3977 19.0597 38.2734C19.1832 38.1491 19.2809 38.0017 19.3474 37.8396C19.4138 37.6775 19.4477 37.5039 19.4471 37.3287C19.4465 37.1535 19.4114 36.9801 19.3438 36.8185C19.2761 36.6569 19.1774 36.5102 19.053 36.3867L14.6664 32.0001L19.053 27.6134C19.178 27.4894 19.2772 27.342 19.3449 27.1795C19.4126 27.017 19.4474 26.8427 19.4474 26.6667C19.4474 26.4907 19.4126 26.3164 19.3449 26.154C19.2772 25.9915 19.178 25.844 19.053 25.7201Z" fill="#01A3E8"/>
<path d="M37.1737 38.2801C37.4235 38.5284 37.7614 38.6678 38.1137 38.6678C38.4659 38.6678 38.8039 38.5284 39.0537 38.2801L44.387 32.9467C44.512 32.8228 44.6112 32.6753 44.6789 32.5128C44.7466 32.3504 44.7814 32.1761 44.7814 32.0001C44.7814 31.824 44.7466 31.6498 44.6789 31.4873C44.6112 31.3248 44.512 31.1773 44.387 31.0534L39.0537 25.7201C38.8039 25.4717 38.4659 25.3323 38.1137 25.3323C37.7614 25.3323 37.4235 25.4717 37.1737 25.7201C37.0487 25.844 36.9495 25.9915 36.8818 26.154C36.8141 26.3164 36.7793 26.4907 36.7793 26.6667C36.7793 26.8427 36.8141 27.017 36.8818 27.1795C36.9495 27.342 37.0487 27.4894 37.1737 27.6134L41.5604 32.0001L37.1737 36.3867C37.0487 36.5107 36.9495 36.6581 36.8818 36.8206C36.8141 36.9831 36.7793 37.1574 36.7793 37.3334C36.7793 37.5094 36.8141 37.6837 36.8818 37.8462C36.9495 38.0086 37.0487 38.1561 37.1737 38.2801Z" fill="#01A3E8"/>
<path d="M29.48 26.0667L24.1467 36.7333C23.9886 37.0482 23.9615 37.4129 24.0714 37.7477C24.1814 38.0825 24.4193 38.3602 24.7334 38.52C24.9178 38.6187 25.1242 38.6692 25.3334 38.6667C25.5796 38.6659 25.8208 38.597 26.0303 38.4676C26.2397 38.3381 26.4092 38.1532 26.52 37.9333L31.8534 27.2667C31.9479 27.1096 32.009 26.9347 32.0329 26.7529C32.0568 26.5711 32.0429 26.3863 31.9922 26.2101C31.9414 26.034 31.8548 25.8701 31.7379 25.7289C31.621 25.5877 31.4762 25.4721 31.3125 25.3894C31.1489 25.3066 30.97 25.2585 30.7869 25.2481C30.6039 25.2376 30.4206 25.265 30.2487 25.3286C30.0767 25.3922 29.9197 25.4905 29.7874 25.6175C29.6552 25.7445 29.5505 25.8974 29.48 26.0667Z" fill="#01A3E8"/>
</svg>
