<svg width="101" height="30" viewBox="0 0 101 30" fill="none" xmlns="http://www.w3.org/2000/svg">
<path d="M13.44 30C10.5733 30 8.14 29.3667 6.14 28.1C4.14 26.8333 2.61333 25.0733 1.56 22.82C0.52 20.5667 0 17.96 0 15C0 12.04 0.52 9.43333 1.56 7.18C2.61333 4.92667 4.14 3.16667 6.14 1.9C8.14 0.633333 10.5733 0 13.44 0C16.7733 0 19.5133 0.846667 21.66 2.54C23.82 4.23333 25.3067 6.51333 26.12 9.38L22.5 10.34C21.9133 8.19333 20.8667 6.5 19.36 5.26C17.8533 4.02 15.88 3.4 13.44 3.4C11.2933 3.4 9.50667 3.88667 8.08 4.86C6.65333 5.83333 5.58 7.19333 4.86 8.94C4.14 10.6733 3.77333 12.6933 3.76 15C3.74667 17.2933 4.1 19.3133 4.82 21.06C5.54 22.7933 6.62 24.1533 8.06 25.14C9.5 26.1133 11.2933 26.6 13.44 26.6C15.88 26.6 17.8533 25.98 19.36 24.74C20.8667 23.4867 21.9133 21.7933 22.5 19.66L26.12 20.62C25.3067 23.4733 23.82 25.7533 21.66 27.46C19.5133 29.1533 16.7733 30 13.44 30Z" fill="#2C2C2C"/>
<path d="M40.2262 30C38.3596 30 36.6929 29.58 35.2262 28.74C33.7729 27.8867 32.6196 26.7333 31.7663 25.28C30.9263 23.8133 30.5062 22.1467 30.5062 20.28V9.72C30.5062 7.85333 30.9263 6.18667 31.7663 4.72C32.6196 3.25333 33.7729 2.1 35.2262 1.26C36.6929 0.42 38.3596 0 40.2262 0C42.0929 0 43.7596 0.42 45.2262 1.26C46.6929 2.1 47.8462 3.25333 48.6862 4.72C49.5262 6.18667 49.9463 7.85333 49.9463 9.72V20.28C49.9463 22.1467 49.5262 23.8133 48.6862 25.28C47.8462 26.7333 46.6929 27.8867 45.2262 28.74C43.7596 29.58 42.0929 30 40.2262 30ZM40.2262 26.58C41.3596 26.58 42.3863 26.3067 43.3063 25.76C44.2262 25.2133 44.9596 24.48 45.5062 23.56C46.0529 22.6267 46.3263 21.6 46.3263 20.48V9.5C46.3263 8.36667 46.0529 7.34 45.5062 6.42C44.9596 5.5 44.2262 4.76667 43.3063 4.22C42.3863 3.67333 41.3596 3.4 40.2262 3.4C39.1063 3.4 38.0796 3.67333 37.1463 4.22C36.2262 4.76667 35.4929 5.5 34.9463 6.42C34.3996 7.34 34.1263 8.36667 34.1263 9.5V20.48C34.1263 21.6 34.3996 22.6267 34.9463 23.56C35.4929 24.48 36.2262 25.2133 37.1463 25.76C38.0796 26.3067 39.1063 26.58 40.2262 26.58Z" fill="#01A3E8"/>
<path d="M55.5453 29.4V0.599999H64.4253C64.7187 0.599999 65.232 0.606666 65.9653 0.62C66.6986 0.633333 67.3987 0.686665 68.0653 0.779998C70.292 1.07333 72.152 1.88667 73.6453 3.22C75.152 4.54 76.2853 6.22 77.0453 8.26C77.8053 10.3 78.1853 12.5467 78.1853 15C78.1853 17.4533 77.8053 19.7 77.0453 21.74C76.2853 23.78 75.152 25.4667 73.6453 26.8C72.152 28.12 70.292 28.9267 68.0653 29.22C67.3987 29.3 66.692 29.3533 65.9453 29.38C65.212 29.3933 64.7053 29.4 64.4253 29.4H55.5453ZM59.2053 26H64.4253C64.932 26 65.4986 25.9867 66.1253 25.96C66.752 25.92 67.2987 25.86 67.7653 25.78C69.3387 25.4867 70.612 24.8267 71.5853 23.8C72.5587 22.7733 73.272 21.4933 73.7253 19.96C74.1786 18.4267 74.4053 16.7733 74.4053 15C74.4053 13.1867 74.172 11.5133 73.7053 9.98C73.252 8.44666 72.5387 7.17333 71.5653 6.16C70.592 5.14667 69.3253 4.5 67.7653 4.22C67.2987 4.12667 66.7453 4.06667 66.1053 4.04C65.4653 4.01333 64.9053 4 64.4253 4H59.2053V26Z" fill="#2C2C2C"/>
<path d="M82.7719 29.4V0.599999H100.972V3.98H86.3319V13H98.5719V16.38H86.3319V26.02H100.972V29.4H82.7719Z" fill="#2C2C2C"/>
</svg>
