<svg width="40" height="40" viewBox="0 0 40 40" fill="none" xmlns="http://www.w3.org/2000/svg">
<path d="M11.2903 30.2063C10.8773 30.6212 10.2059 30.6219 9.79199 30.208C9.37805 29.794 9.37879 29.1227 9.79365 28.7097L18.542 20L9.79365 11.2903C9.37879 10.8773 9.37805 10.2059 9.79199 9.79199C10.2059 9.37805 10.8773 9.37879 11.2903 9.79365L20 18.542L28.7097 9.79365C29.1227 9.37879 29.794 9.37805 30.208 9.79199C30.6219 10.2059 30.6212 10.8773 30.2063 11.2903L21.458 20L30.2063 28.7097C30.6212 29.1227 30.6219 29.794 30.208 30.208C29.794 30.6219 29.1227 30.6212 28.7097 30.2063L20 21.458L11.2903 30.2063Z" fill="#2C2C2C"/>
</svg>
