<svg width="16" height="16" viewBox="0 0 16 16" fill="none" xmlns="http://www.w3.org/2000/svg">
<g id="akar-icons:linkedin-fill" clip-path="url(#clip0_54_52)">
<path id="Vector" fill-rule="evenodd" clip-rule="evenodd" d="M6.14893 5.81773H8.82301V7.14973C9.20821 6.38365 10.196 5.69533 11.68 5.69533C14.5247 5.69533 15.2 7.22029 15.2 10.0182V15.2H12.32V10.6554C12.32 9.06205 11.9348 8.16349 10.9542 8.16349C9.59413 8.16349 9.02893 9.13189 9.02893 10.6547V15.2H6.14893V5.81773ZM1.21045 15.0776H4.09045V5.69533H1.21045V15.0776ZM4.50301 2.63605C4.50312 2.87745 4.45524 3.11646 4.36217 3.33919C4.26909 3.56192 4.13268 3.76394 3.96085 3.93349C3.61266 4.27954 3.14135 4.47324 2.65045 4.47205C2.16041 4.47172 1.69019 4.27851 1.34149 3.93421C1.17028 3.76408 1.03433 3.56184 0.941416 3.33908C0.848506 3.11632 0.800466 2.87741 0.800049 2.63605C0.800049 2.14861 0.994449 1.68205 1.34221 1.33789C1.69061 0.993123 2.16102 0.799833 2.65117 0.800049C3.14221 0.800049 3.61309 0.993729 3.96085 1.33789C4.30789 1.68205 4.50301 2.14861 4.50301 2.63605Z" fill="#2C2C2C"/>
</g>
<defs>
<clipPath id="clip0_54_52">
<rect width="16" height="16" fill="white"/>
</clipPath>
</defs>
</svg>
