<svg width="16" height="16" viewBox="0 0 16 16" fill="none" xmlns="http://www.w3.org/2000/svg">
<path id="Instagram" fill-rule="evenodd" clip-rule="evenodd" d="M8.00002 0C5.82733 0 5.5549 0.00920925 4.70161 0.0481422C3.8501 0.0869798 3.26856 0.222229 2.7597 0.420006C2.23363 0.624419 1.78748 0.897966 1.34271 1.34271C0.897966 1.78748 0.624419 2.23363 0.420006 2.7597C0.222229 3.26856 0.0869798 3.8501 0.0481422 4.70161C0.00920925 5.5549 0 5.82733 0 8.00002C0 10.1727 0.00920925 10.4451 0.0481422 11.2984C0.0869798 12.1499 0.222229 12.7314 0.420006 13.2403C0.624419 13.7664 0.897966 14.2125 1.34271 14.6573C1.78748 15.102 2.23363 15.3756 2.7597 15.58C3.26856 15.7778 3.8501 15.913 4.70161 15.9519C5.5549 15.9908 5.82733 16 8.00002 16C10.1727 16 10.4451 15.9908 11.2984 15.9519C12.1499 15.913 12.7314 15.7778 13.2403 15.58C13.7664 15.3756 14.2125 15.102 14.6573 14.6573C15.102 14.2125 15.3756 13.7664 15.58 13.2403C15.7778 12.7314 15.913 12.1499 15.9519 11.2984C15.9908 10.4451 16 10.1727 16 8.00002C16 5.82733 15.9908 5.5549 15.9519 4.70161C15.913 3.8501 15.7778 3.26856 15.58 2.7597C15.3756 2.23363 15.102 1.78748 14.6573 1.34271C14.2125 0.897966 13.7664 0.624419 13.2403 0.420006C12.7314 0.222229 12.1499 0.0869798 11.2984 0.0481422C10.4451 0.00920925 10.1727 0 8.00002 0ZM7.99998 1.44238C10.1361 1.44238 10.3891 1.45054 11.2327 1.48903C12.0126 1.5246 12.4362 1.65493 12.7181 1.76448C13.0916 1.90961 13.3581 2.08297 13.638 2.36293C13.9179 2.64286 14.0913 2.90935 14.2364 3.28277C14.346 3.56467 14.4763 3.98827 14.5119 4.76826C14.5504 5.61182 14.5585 5.86486 14.5585 8.00096C14.5585 10.137 14.5504 10.3901 14.5119 11.2336C14.4763 12.0136 14.346 12.4372 14.2364 12.7191C14.0913 13.0925 13.9179 13.359 13.638 13.639C13.3581 13.9189 13.0916 14.0923 12.7181 14.2374C12.4362 14.347 12.0126 14.4773 11.2327 14.5129C10.3892 14.5513 10.1362 14.5595 7.99998 14.5595C5.86372 14.5595 5.61075 14.5513 4.76728 14.5129C3.98729 14.4773 3.56369 14.347 3.2818 14.2374C2.90838 14.0923 2.64188 13.9189 2.36195 13.639C2.08202 13.359 1.90863 13.0925 1.76351 12.7191C1.65395 12.4372 1.52362 12.0136 1.48806 11.2336C1.44957 10.3901 1.44141 10.137 1.44141 8.00096C1.44141 5.86486 1.44957 5.61182 1.48806 4.76826C1.52362 3.98827 1.65395 3.56467 1.76351 3.28277C1.90863 2.90935 2.08199 2.64286 2.36195 2.36293C2.64188 2.08297 2.90838 1.90961 3.2818 1.76448C3.56369 1.65493 3.98729 1.5246 4.76728 1.48903C5.61085 1.45054 5.86388 1.44238 7.99998 1.44238ZM3.89197 7.99972C3.89197 5.73085 5.73122 3.8916 8.00009 3.8916C10.2689 3.8916 12.1082 5.73085 12.1082 7.99972C12.1082 10.2686 10.2689 12.1078 8.00009 12.1078C5.73122 12.1078 3.89197 10.2686 3.89197 7.99972ZM8.00006 10.6668C6.52727 10.6668 5.33337 9.47293 5.33337 8.00018C5.33337 6.5274 6.52727 5.3335 8.00006 5.3335C9.47281 5.3335 10.6667 6.5274 10.6667 8.00018C10.6667 9.47293 9.47281 10.6668 8.00006 10.6668ZM12.2704 4.69051C12.8006 4.69051 13.2304 4.26072 13.2304 3.73052C13.2304 3.20033 12.8006 2.77051 12.2704 2.77051C11.7402 2.77051 11.3104 3.20033 11.3104 3.73052C11.3104 4.26072 11.7402 4.69051 12.2704 4.69051Z" fill="#2C2C2C"/>
</svg>
