<svg width="164" height="52" viewBox="0 0 164 52" fill="none" xmlns="http://www.w3.org/2000/svg">
<circle cx="26" cy="26" r="26" fill="#01A3E8"/>
<path fill-rule="evenodd" clip-rule="evenodd" d="M30.4802 51.6154L15.3543 36.4896L36.4896 15.3543L51.6154 30.4802C49.745 41.2492 41.2491 49.745 30.4802 51.6154Z" fill="#115BC9"/>
<path fill-rule="evenodd" clip-rule="evenodd" d="M15.4324 36.5676C21.2687 42.404 30.7313 42.404 36.5676 36.5676C36.5712 36.564 36.5748 36.5604 36.5784 36.5568L36.5676 36.5676L26 26L36.5676 15.4324C30.7313 9.59603 21.2687 9.59604 15.4324 15.4324C9.59603 21.2687 9.59603 30.7313 15.4324 36.5676Z" fill="white"/>
<path d="M75.44 41C72.5733 41 70.14 40.3667 68.14 39.1C66.14 37.8333 64.6133 36.0733 63.56 33.82C62.52 31.5667 62 28.96 62 26C62 23.04 62.52 20.4333 63.56 18.18C64.6133 15.9267 66.14 14.1667 68.14 12.9C70.14 11.6333 72.5733 11 75.44 11C78.7733 11 81.5133 11.8467 83.66 13.54C85.82 15.2333 87.3067 17.5133 88.12 20.38L84.5 21.34C83.9133 19.1933 82.8667 17.5 81.36 16.26C79.8533 15.02 77.88 14.4 75.44 14.4C73.2933 14.4 71.5067 14.8867 70.08 15.86C68.6533 16.8333 67.58 18.1933 66.86 19.94C66.14 21.6733 65.7733 23.6933 65.76 26C65.7467 28.2933 66.1 30.3133 66.82 32.06C67.54 33.7933 68.62 35.1533 70.06 36.14C71.5 37.1133 73.2933 37.6 75.44 37.6C77.88 37.6 79.8533 36.98 81.36 35.74C82.8667 34.4867 83.9133 32.7933 84.5 30.66L88.12 31.62C87.3067 34.4733 85.82 36.7533 83.66 38.46C81.5133 40.1533 78.7733 41 75.44 41Z" fill="#2C2C2C"/>
<path d="M102.226 41C100.36 41 98.6929 40.58 97.2262 39.74C95.7729 38.8867 94.6196 37.7333 93.7663 36.28C92.9263 34.8133 92.5062 33.1467 92.5062 31.28V20.72C92.5062 18.8533 92.9263 17.1867 93.7663 15.72C94.6196 14.2533 95.7729 13.1 97.2262 12.26C98.6929 11.42 100.36 11 102.226 11C104.093 11 105.76 11.42 107.226 12.26C108.693 13.1 109.846 14.2533 110.686 15.72C111.526 17.1867 111.946 18.8533 111.946 20.72V31.28C111.946 33.1467 111.526 34.8133 110.686 36.28C109.846 37.7333 108.693 38.8867 107.226 39.74C105.76 40.58 104.093 41 102.226 41ZM102.226 37.58C103.36 37.58 104.386 37.3067 105.306 36.76C106.226 36.2133 106.96 35.48 107.506 34.56C108.053 33.6267 108.326 32.6 108.326 31.48V20.5C108.326 19.3667 108.053 18.34 107.506 17.42C106.96 16.5 106.226 15.7667 105.306 15.22C104.386 14.6733 103.36 14.4 102.226 14.4C101.106 14.4 100.08 14.6733 99.1463 15.22C98.2262 15.7667 97.4929 16.5 96.9463 17.42C96.3996 18.34 96.1263 19.3667 96.1263 20.5V31.48C96.1263 32.6 96.3996 33.6267 96.9463 34.56C97.4929 35.48 98.2262 36.2133 99.1463 36.76C100.08 37.3067 101.106 37.58 102.226 37.58Z" fill="#01A3E8"/>
<path d="M117.545 40.4V11.6H126.425C126.719 11.6 127.232 11.6067 127.965 11.62C128.699 11.6333 129.399 11.6867 130.065 11.78C132.292 12.0733 134.152 12.8867 135.645 14.22C137.152 15.54 138.285 17.22 139.045 19.26C139.805 21.3 140.185 23.5467 140.185 26C140.185 28.4533 139.805 30.7 139.045 32.74C138.285 34.78 137.152 36.4667 135.645 37.8C134.152 39.12 132.292 39.9267 130.065 40.22C129.399 40.3 128.692 40.3533 127.945 40.38C127.212 40.3933 126.705 40.4 126.425 40.4H117.545ZM121.205 37H126.425C126.932 37 127.499 36.9867 128.125 36.96C128.752 36.92 129.299 36.86 129.765 36.78C131.339 36.4867 132.612 35.8267 133.585 34.8C134.559 33.7733 135.272 32.4933 135.725 30.96C136.179 29.4267 136.405 27.7733 136.405 26C136.405 24.1867 136.172 22.5133 135.705 20.98C135.252 19.4467 134.539 18.1733 133.565 17.16C132.592 16.1467 131.325 15.5 129.765 15.22C129.299 15.1267 128.745 15.0667 128.105 15.04C127.465 15.0133 126.905 15 126.425 15H121.205V37Z" fill="#2C2C2C"/>
<path d="M144.772 40.4V11.6H162.972V14.98H148.332V24H160.572V27.38H148.332V37.02H162.972V40.4H144.772Z" fill="#2C2C2C"/>
</svg>
