<svg width="30" height="20" viewBox="0 0 30 20" fill="none" xmlns="http://www.w3.org/2000/svg">
<path d="M1.45849 19.375C0.883287 19.375 0.416992 18.9087 0.416992 18.3335V18.3335C0.416992 17.7583 0.883288 17.292 1.45849 17.292H28.5415C29.1167 17.292 29.583 17.7583 29.583 18.3335V18.3335C29.583 18.9087 29.1167 19.375 28.5415 19.375H1.45849ZM1.45899 11.042C0.88351 11.042 0.416992 10.5755 0.416992 10V10C0.416992 9.42452 0.883511 8.958 1.45899 8.958H28.541C29.1165 8.958 29.583 9.42452 29.583 10V10C29.583 10.5755 29.1165 11.042 28.541 11.042H1.45899ZM1.45849 2.708C0.883287 2.708 0.416992 2.2417 0.416992 1.6665V1.6665C0.416992 1.0913 0.883288 0.625 1.45849 0.625H28.5415C29.1167 0.625 29.583 1.0913 29.583 1.6665V1.6665C29.583 2.2417 29.1167 2.708 28.5415 2.708H1.45849Z" fill="#2C2C2C"/>
</svg>
