<svg width="56" height="56" viewBox="0 0 56 56" fill="none" xmlns="http://www.w3.org/2000/svg">
<path d="M45.5 8H20.5C18.5109 8 16.6032 8.79018 15.1967 10.1967C13.7902 11.6032 13 13.5109 13 15.5V18H6.75C5.75544 18 4.80161 18.3951 4.09835 19.0983C3.39509 19.8016 3 20.7554 3 21.75V44.25C3 45.2446 3.39509 46.1984 4.09835 46.9016C4.80161 47.6049 5.75544 48 6.75 48H30.5C31.163 48 31.7989 47.7366 32.2678 47.2678C32.7366 46.7989 33 46.163 33 45.5V44.25H40.5C44.25 44.25 44.25 46.1375 44.25 46.75C44.25 47.0815 44.3817 47.3995 44.6161 47.6339C44.8505 47.8683 45.1685 48 45.5 48C45.8315 48 46.1495 47.8683 46.3839 47.6339C46.6183 47.3995 46.75 47.0815 46.75 46.75C46.75 43.975 44.9125 42.1875 41.75 41.825V41.75C41.75 41.4185 41.6183 41.1005 41.3839 40.8661C41.1495 40.6317 40.8315 40.5 40.5 40.5H33V39.25H45.5C47.4891 39.25 49.3968 38.4598 50.8033 37.0533C52.2098 35.6468 53 33.7391 53 31.75V15.5C53 13.5109 52.2098 11.6032 50.8033 10.1967C49.3968 8.79018 47.4891 8 45.5 8ZM15.5 15.5C15.5 14.1739 16.0268 12.9021 16.9645 11.9645C17.9021 11.0268 19.1739 10.5 20.5 10.5H45.5C46.8261 10.5 48.0979 11.0268 49.0355 11.9645C49.9732 12.9021 50.5 14.1739 50.5 15.5V30.5H33C33 29.837 32.7366 29.2011 32.2678 28.7322C31.7989 28.2634 31.163 28 30.5 28H25.5V21.75C25.5 20.7554 25.1049 19.8016 24.4017 19.0983C23.6984 18.3951 22.7446 18 21.75 18H15.5V15.5ZM20.5 30.5V45.5H6.75C6.41848 45.5 6.10054 45.3683 5.86612 45.1339C5.6317 44.8995 5.5 44.5815 5.5 44.25V21.75C5.5 21.4185 5.6317 21.1005 5.86612 20.8661C6.10054 20.6317 6.41848 20.5 6.75 20.5H21.75C22.0815 20.5 22.3995 20.6317 22.6339 20.8661C22.8683 21.1005 23 21.4185 23 21.75V28C22.337 28 21.7011 28.2634 21.2322 28.7322C20.7634 29.2011 20.5 29.837 20.5 30.5ZM30.5 45.5H23V30.5H30.5V45.5Z" fill="#01A3E8"/>
<path d="M15.5 41.7501H13C12.6685 41.7501 12.3505 41.8818 12.1161 42.1162C11.8817 42.3507 11.75 42.6686 11.75 43.0001C11.75 43.3316 11.8817 43.6496 12.1161 43.884C12.3505 44.1184 12.6685 44.2501 13 44.2501H15.5C15.8315 44.2501 16.1495 44.1184 16.3839 43.884C16.6183 43.6496 16.75 43.3316 16.75 43.0001C16.75 42.6686 16.6183 42.3507 16.3839 42.1162C16.1495 41.8818 15.8315 41.7501 15.5 41.7501Z" fill="#01A3E8"/>
</svg>
