<svg width="56" height="56" viewBox="0 0 56 56" fill="none" xmlns="http://www.w3.org/2000/svg">
<path d="M47.0512 29.3332C47.3446 29.8415 47.7976 30.2388 48.3399 30.4634C48.8822 30.688 49.4834 30.7274 50.0504 30.5755C50.6174 30.4236 51.1184 30.0888 51.4757 29.6232C51.833 29.1575 52.0267 28.587 52.0267 28C52.0267 27.413 51.833 26.8425 51.4757 26.3768C51.1184 25.9112 50.6174 25.5764 50.0504 25.4245C49.4834 25.2726 48.8822 25.312 48.3399 25.5366C47.7976 25.7612 47.3446 26.1585 47.0512 26.6668H42.6783V18.6677H47.0512C47.3446 19.176 47.7976 19.5733 48.3399 19.7979C48.8822 20.0226 49.4834 20.062 50.0504 19.9101C50.6174 19.7581 51.1184 19.4234 51.4757 18.9577C51.833 18.4921 52.0267 17.9215 52.0267 17.3345C52.0267 16.7476 51.833 16.177 51.4757 15.7114C51.1184 15.2457 50.6174 14.911 50.0504 14.759C49.4834 14.6071 48.8822 14.6465 48.3399 14.8711C47.7976 15.0958 47.3446 15.493 47.0512 16.0014H42.6783V14.6682C42.6783 14.3146 42.5379 13.9755 42.2878 13.7255C42.0378 13.4755 41.6987 13.335 41.3451 13.335H36.0124V11.2152L37.9989 9.24214C38.2194 9.30758 38.4487 9.33905 38.6788 9.33546C39.2061 9.33546 39.7217 9.17908 40.1601 8.8861C40.5986 8.59311 40.9404 8.17668 41.1422 7.68947C41.344 7.20226 41.3968 6.66614 41.2939 6.14892C41.191 5.63169 40.9371 5.15659 40.5642 4.78369C40.1913 4.4108 39.7162 4.15685 39.199 4.05397C38.6817 3.95109 38.1456 4.00389 37.6584 4.2057C37.1712 4.40751 36.7548 4.74926 36.4618 5.18775C36.1688 5.62623 36.0124 6.14174 36.0124 6.6691C36.0088 6.89916 36.0403 7.12843 36.1057 7.34902L33.7327 9.72208C33.6091 9.84665 33.5114 9.99439 33.445 10.1568C33.3787 10.3193 33.345 10.4932 33.3461 10.6686V13.335H29.3465V8.9755C29.8548 8.68202 30.2521 8.22901 30.4767 7.68674C30.7013 7.14446 30.7408 6.54321 30.5888 5.97626C30.4369 5.4093 30.1022 4.90831 29.6365 4.55099C29.1708 4.19368 28.6003 4 28.0133 4C27.4264 4 26.8558 4.19368 26.3902 4.55099C25.9245 4.90831 25.5897 5.4093 25.4378 5.97626C25.2859 6.54321 25.3253 7.14446 25.5499 7.68674C25.7746 8.22901 26.1718 8.68202 26.6801 8.9755V13.335H18.6811V8.9755C19.1894 8.68202 19.5867 8.22901 19.8113 7.68674C20.0359 7.14446 20.0753 6.54321 19.9234 5.97626C19.7715 5.4093 19.4367 4.90831 18.9711 4.55099C18.5054 4.19368 17.9348 4 17.3479 4C16.7609 4 16.1904 4.19368 15.7247 4.55099C15.259 4.90831 14.9243 5.4093 14.7724 5.97626C14.6205 6.54321 14.6599 7.14446 14.8845 7.68674C15.1091 8.22901 15.5064 8.68202 16.0147 8.9755V13.335H14.6815C14.3279 13.335 13.9888 13.4755 13.7388 13.7255C13.4888 13.9755 13.3483 14.3146 13.3483 14.6682V20.0009H11.2286L9.25547 18.0145C9.31448 17.7925 9.34582 17.5642 9.34879 17.3345C9.34879 16.8072 9.19241 16.2917 8.89943 15.8532C8.60644 15.4147 8.19001 15.073 7.7028 14.8711C7.21559 14.6693 6.67947 14.6165 6.16225 14.7194C5.64502 14.8223 5.16992 15.0762 4.79703 15.4491C4.42413 15.822 4.17018 16.2971 4.0673 16.8144C3.96442 17.3316 4.01722 17.8677 4.21903 18.3549C4.42084 18.8421 4.7626 19.2586 5.20108 19.5515C5.63956 19.8445 6.15507 20.0009 6.68243 20.0009C6.91205 19.9979 7.14042 19.9666 7.36235 19.9076L9.73541 22.2806C9.85999 22.4042 10.0077 22.502 10.1702 22.5683C10.3326 22.6347 10.5065 22.6683 10.682 22.6673H13.3483V26.6668H8.9755C8.68202 26.1585 8.22901 25.7612 7.68674 25.5366C7.14446 25.312 6.54321 25.2726 5.97626 25.4245C5.4093 25.5764 4.90831 25.9112 4.55099 26.3768C4.19368 26.8425 4 27.413 4 28C4 28.587 4.19368 29.1575 4.55099 29.6232C4.90831 30.0888 5.4093 30.4236 5.97626 30.5755C6.54321 30.7274 7.14446 30.688 7.68674 30.4634C8.22901 30.2388 8.68202 29.8415 8.9755 29.3332H13.3483V37.3323H8.9755C8.68202 36.8239 8.22901 36.4267 7.68674 36.2021C7.14446 35.9774 6.54321 35.938 5.97626 36.0899C5.4093 36.2419 4.90831 36.5766 4.55099 37.0423C4.19368 37.5079 4 38.0785 4 38.6655C4 39.2524 4.19368 39.823 4.55099 40.2886C4.90831 40.7543 5.4093 41.089 5.97626 41.241C6.54321 41.3929 7.14446 41.3535 7.68674 41.1288C8.22901 40.9042 8.68202 40.507 8.9755 39.9986H13.3483V41.3318C13.3483 41.6854 13.4888 42.0245 13.7388 42.2745C13.9888 42.5245 14.3279 42.665 14.6815 42.665H20.0142V44.7848L18.0278 46.7579C17.8072 46.6924 17.5779 46.661 17.3479 46.6645C16.8205 46.6645 16.305 46.8209 15.8665 47.1139C15.428 47.4069 15.0863 47.8233 14.8845 48.3105C14.6827 48.7977 14.6299 49.3339 14.7327 49.8511C14.8356 50.3683 15.0896 50.8434 15.4625 51.2163C15.8354 51.5892 16.3105 51.8432 16.8277 51.946C17.3449 52.0489 17.881 51.9961 18.3683 51.7943C18.8555 51.5925 19.2719 51.2507 19.5649 50.8123C19.8579 50.3738 20.0142 49.8583 20.0142 49.3309C20.0178 49.1008 19.9864 48.8716 19.9209 48.651L22.294 46.2779C22.4175 46.1533 22.5153 46.0056 22.5816 45.8432C22.648 45.6807 22.6816 45.5068 22.6806 45.3314V42.665H26.6801V47.0245C26.1718 47.318 25.7746 47.771 25.5499 48.3133C25.3253 48.8555 25.2859 49.4568 25.4378 50.0237C25.5897 50.5907 25.9245 51.0917 26.3902 51.449C26.8558 51.8063 27.4264 52 28.0133 52C28.6003 52 29.1708 51.8063 29.6365 51.449C30.1022 51.0917 30.4369 50.5907 30.5888 50.0237C30.7408 49.4568 30.7013 48.8555 30.4767 48.3133C30.2521 47.771 29.8548 47.318 29.3465 47.0245V42.665H37.3456V47.0245C36.8373 47.318 36.44 47.771 36.2154 48.3133C35.9908 48.8555 35.9514 49.4568 36.1033 50.0237C36.2552 50.5907 36.5899 51.0917 37.0556 51.449C37.5213 51.8063 38.0918 52 38.6788 52C39.2657 52 39.8363 51.8063 40.302 51.449C40.7676 51.0917 41.1024 50.5907 41.2543 50.0237C41.4062 49.4568 41.3668 48.8555 41.1422 48.3133C40.9176 47.771 40.5203 47.318 40.012 47.0245V42.665H41.3451C41.6987 42.665 42.0378 42.5245 42.2878 42.2745C42.5379 42.0245 42.6783 41.6854 42.6783 41.3318V35.9991H45.4647L46.9578 37.4923C46.7028 38.0127 46.6244 38.602 46.7342 39.171C46.8441 39.7401 47.1364 40.2578 47.5669 40.6459C47.9973 41.0339 48.5425 41.2711 49.1198 41.3217C49.6972 41.3722 50.2752 41.2332 50.7665 40.9258C51.2578 40.6184 51.6356 40.1593 51.8426 39.618C52.0497 39.0767 52.0747 38.4827 51.914 37.9259C51.7532 37.3691 51.4155 36.8798 50.9518 36.5321C50.4881 36.1845 49.9238 35.9973 49.3442 35.9991H49.2376L46.9578 33.706C46.7041 33.4613 46.3637 33.3271 46.0113 33.3327H42.6783V29.3332H47.0512ZM40.012 39.9986H16.0147V16.0014H40.012V39.9986Z" fill="#01A3E8"/>
<path d="M33.7323 18.6678H22.2936C21.3365 18.6713 20.4195 19.0531 19.7427 19.7299C19.066 20.4067 18.6842 21.3236 18.6807 22.2807V33.7194C18.6842 34.6765 19.066 35.5934 19.7427 36.2702C20.4195 36.947 21.3365 37.3288 22.2936 37.3323H33.7323C34.6894 37.3288 35.6063 36.947 36.2831 36.2702C36.9599 35.5934 37.3417 34.6765 37.3452 33.7194V22.2807C37.3417 21.3236 36.9599 20.4067 36.2831 19.7299C35.6063 19.0531 34.6894 18.6713 33.7323 18.6678ZM32.0125 25.3337H29.3461C28.9925 25.3337 28.6534 25.1932 28.4034 24.9432C28.1534 24.6932 28.0129 24.3541 28.0129 24.0005C28.0129 23.6469 28.1534 23.3078 28.4034 23.0578C28.6534 22.8078 28.9925 22.6673 29.3461 22.6673H32.0125C32.3661 22.6673 32.7052 22.8078 32.9552 23.0578C33.2052 23.3078 33.3457 23.6469 33.3457 24.0005C33.3457 24.3541 33.2052 24.6932 32.9552 24.9432C32.7052 25.1932 32.3661 25.3337 32.0125 25.3337Z" fill="#01A3E8"/>
</svg>
