<svg width="56" height="56" viewBox="0 0 56 56" fill="none" xmlns="http://www.w3.org/2000/svg">
<path d="M50.6667 4H5.33333C4.97971 4 4.64057 4.14048 4.39052 4.39052C4.14048 4.64057 4 4.97971 4 5.33333V50.6667C4 51.0203 4.14048 51.3594 4.39052 51.6095C4.64057 51.8595 4.97971 52 5.33333 52H50.6667C51.0203 52 51.3594 51.8595 51.6095 51.6095C51.8595 51.3594 52 51.0203 52 50.6667V5.33333C52 4.97971 51.8595 4.64057 51.6095 4.39052C51.3594 4.14048 51.0203 4 50.6667 4ZM22.6667 10.6667C22.6667 10.9304 22.5885 11.1882 22.442 11.4074C22.2955 11.6267 22.0872 11.7976 21.8436 11.8985C21.5999 11.9994 21.3319 12.0258 21.0732 11.9744C20.8146 11.9229 20.577 11.7959 20.3905 11.6095C20.2041 11.423 20.0771 11.1854 20.0256 10.9268C19.9742 10.6681 20.0006 10.4001 20.1015 10.1564C20.2024 9.91279 20.3733 9.70455 20.5926 9.55804C20.8118 9.41153 21.0696 9.33333 21.3333 9.33333C21.687 9.33333 22.0261 9.47381 22.2761 9.72386C22.5262 9.97391 22.6667 10.313 22.6667 10.6667ZM17.3333 10.6667C17.3333 10.9304 17.2551 11.1882 17.1086 11.4074C16.9621 11.6267 16.7539 11.7976 16.5102 11.8985C16.2666 11.9994 15.9985 12.0258 15.7399 11.9744C15.4812 11.9229 15.2437 11.7959 15.0572 11.6095C14.8707 11.423 14.7437 11.1854 14.6923 10.9268C14.6408 10.6681 14.6672 10.4001 14.7682 10.1564C14.8691 9.91279 15.04 9.70455 15.2592 9.55804C15.4785 9.41153 15.7363 9.33333 16 9.33333C16.3536 9.33333 16.6928 9.47381 16.9428 9.72386C17.1929 9.97391 17.3333 10.313 17.3333 10.6667ZM10.6667 9.33333C10.9304 9.33333 11.1882 9.41153 11.4074 9.55804C11.6267 9.70455 11.7976 9.91279 11.8985 10.1564C11.9994 10.4001 12.0258 10.6681 11.9744 10.9268C11.9229 11.1854 11.7959 11.423 11.6095 11.6095C11.423 11.7959 11.1854 11.9229 10.9268 11.9744C10.6681 12.0258 10.4001 11.9994 10.1564 11.8985C9.91279 11.7976 9.70455 11.6267 9.55804 11.4074C9.41153 11.1882 9.33333 10.9304 9.33333 10.6667C9.33333 10.313 9.47381 9.97391 9.72386 9.72386C9.97391 9.47381 10.313 9.33333 10.6667 9.33333ZM49.3333 49.3333H6.66667V17.3333H24C24.1755 17.3343 24.3494 17.3007 24.5119 17.2344C24.6743 17.168 24.8221 17.0702 24.9467 16.9467L29.88 12H49.3333V49.3333Z" fill="#01A3E8"/>
<path d="M24.1196 20.76L22.9996 23.1734C22.5376 23.3895 22.0919 23.639 21.6662 23.92L18.9996 23.6934C18.7469 23.6726 18.4935 23.7242 18.2692 23.8423C18.0448 23.9604 17.8588 24.14 17.7329 24.36L15.0662 28.9734C14.9311 29.1868 14.8594 29.4341 14.8594 29.6867C14.8594 29.9393 14.9311 30.1866 15.0662 30.4L16.5862 32.5867C16.5862 32.8267 16.5862 33.08 16.5862 33.3334C16.5862 33.5867 16.5862 33.84 16.5862 34.08L15.1729 36.2667C15.0378 36.4801 14.966 36.7275 14.966 36.98C14.966 37.2326 15.0378 37.48 15.1729 37.6934L17.8396 42.3067C17.9655 42.5267 18.1515 42.7063 18.3759 42.8244C18.6002 42.9425 18.8536 42.9942 19.1062 42.9734L21.7729 42.7467C22.1986 43.0277 22.6442 43.2773 23.1062 43.4934L24.2262 45.9067C24.327 46.1199 24.4825 46.3026 24.6769 46.4361C24.8714 46.5697 25.0977 46.6492 25.3329 46.6667H30.6662C30.9198 46.6685 31.1687 46.598 31.3836 46.4634C31.5985 46.3288 31.7705 46.1356 31.8796 45.9067L32.9996 43.4934C33.4616 43.2773 33.9072 43.0277 34.3329 42.7467L36.9996 42.9734C37.2522 42.9942 37.5056 42.9425 37.7299 42.8244C37.9543 42.7063 38.1403 42.5267 38.2662 42.3067L40.9329 37.6934C41.068 37.48 41.1398 37.2326 41.1398 36.98C41.1398 36.7275 41.068 36.4801 40.9329 36.2667L39.4129 34.08C39.4129 33.84 39.4129 33.5867 39.4129 33.3334C39.4129 33.08 39.4129 32.8267 39.4129 32.5867L40.9329 30.4C41.068 30.1866 41.1398 29.9393 41.1398 29.6867C41.1398 29.4341 41.068 29.1868 40.9329 28.9734L38.2662 24.36C38.1403 24.14 37.9543 23.9604 37.7299 23.8423C37.5056 23.7242 37.2522 23.6726 36.9996 23.6934L34.3329 23.92C33.9072 23.639 33.4616 23.3895 32.9996 23.1734L31.8796 20.76C31.7705 20.5311 31.5985 20.338 31.3836 20.2034C31.1687 20.0688 30.9198 19.9982 30.6662 20H25.3329C25.0793 19.9982 24.8305 20.0688 24.6156 20.2034C24.4007 20.338 24.2286 20.5311 24.1196 20.76ZM25.3329 33.3334C25.3329 32.806 25.4893 32.2904 25.7823 31.8518C26.0753 31.4133 26.4918 31.0715 26.9791 30.8697C27.4664 30.6679 28.0025 30.615 28.5198 30.7179C29.0371 30.8208 29.5123 31.0748 29.8852 31.4477C30.2581 31.8207 30.5121 32.2958 30.615 32.8131C30.7179 33.3304 30.6651 33.8666 30.4633 34.3539C30.2614 34.8411 29.9196 35.2576 29.4811 35.5506C29.0426 35.8436 28.527 36 27.9996 36C27.2923 36 26.6141 35.7191 26.114 35.219C25.6139 34.7189 25.3329 34.0406 25.3329 33.3334Z" fill="#01A3E8"/>
</svg>
