<svg width="56" height="56" viewBox="0 0 56 56" fill="none" xmlns="http://www.w3.org/2000/svg">
<path d="M39.66 48.6841H5V18.3541C5 17.8041 4.55 17.3541 4 17.3541C3.45 17.3541 3 17.8041 3 18.3541V49.6841C3 50.2341 3.45 50.6841 4 50.6841H39.66C40.21 50.6841 40.66 50.2341 40.66 49.6841C40.66 49.1341 40.21 48.6841 39.66 48.6841Z" fill="#01A3E8"/>
<path d="M45.8297 43.7541H9.92969V12.1841C9.92969 11.6341 9.47969 11.1841 8.92969 11.1841C8.37969 11.1841 7.92969 11.6341 7.92969 12.1841V44.7541C7.92969 45.3041 8.37969 45.7541 8.92969 45.7541H45.8297C46.3797 45.7541 46.8297 45.3041 46.8297 44.7541C46.8297 44.2041 46.3797 43.7541 45.8297 43.7541Z" fill="#01A3E8"/>
<path d="M42.3701 18.6341C40.7201 18.6341 39.3701 17.2841 39.3701 15.6341V5.00409H13.8701C13.3201 5.00409 12.8701 5.45409 12.8701 6.00409V39.8141C12.8701 40.3641 13.3201 40.8141 13.8701 40.8141H52.0001C52.5601 40.8141 53.0001 40.3641 53.0001 39.8141V18.6341H42.3701ZM27.1301 31.8541C26.8701 31.8541 26.6101 31.7541 26.4201 31.5541L21.7201 26.8541C21.3301 26.4641 21.3301 25.8341 21.7201 25.4441L26.4201 20.7441C26.8101 20.3441 27.4401 20.3441 27.8301 20.7441C28.2201 21.1341 28.2201 21.7641 27.8301 22.1541L23.8401 26.1441L27.8301 30.1441C28.2201 30.5341 28.2201 31.1641 27.8301 31.5541C27.6401 31.7541 27.3801 31.8541 27.1301 31.8541ZM28.9201 36.7841C28.7901 36.7841 28.6601 36.7641 28.5301 36.7041C28.0201 36.4941 27.7801 35.9141 27.9901 35.4041L36.0401 16.1241C36.2501 15.6141 36.8401 15.3741 37.3401 15.5841C37.8501 15.8041 38.0901 16.3841 37.8801 16.8941L29.8401 36.1741C29.6801 36.5541 29.3101 36.7841 28.9201 36.7841ZM44.1601 26.8541L39.4601 31.5541C39.2601 31.7541 39.0101 31.8541 38.7501 31.8541C38.4901 31.8541 38.2401 31.7541 38.0401 31.5541C37.6501 31.1641 37.6501 30.5341 38.0401 30.1441L42.0401 26.1441L38.0401 22.1541C37.6501 21.7641 37.6501 21.1341 38.0401 20.7441C38.4301 20.3441 39.0701 20.3441 39.4601 20.7441L44.1601 25.4441C44.5501 25.8341 44.5501 26.4641 44.1601 26.8541Z" fill="#01A3E8"/>
<path d="M41.3701 15.6341V6.00408C41.3701 5.59408 41.6101 5.23408 41.9901 5.07408C42.3601 4.92408 42.7901 5.00408 43.0801 5.29408L52.7101 14.9341C53.0001 15.2141 53.0801 15.6441 52.9301 16.0241C52.7701 16.3941 52.4101 16.6341 52.0001 16.6341H42.3701C41.8201 16.6341 41.3701 16.1841 41.3701 15.6341Z" fill="#01A3E8"/>
</svg>
