<svg width="56" height="56" viewBox="0 0 56 56" fill="none" xmlns="http://www.w3.org/2000/svg">
<path d="M8.69928 28.511C9.74366 29.194 11.1517 28.9013 11.8369 27.8569L16.7794 20.3178C16.8837 20.1582 17.0588 20.0672 17.2428 20.0672C17.2961 20.0672 17.3492 20.0739 17.4002 20.0894C17.6353 20.1604 17.7972 20.3755 17.7972 20.6216V33.1365C17.7972 33.9747 17.5532 34.7885 17.0943 35.4891L13.7859 40.5359C13.1007 41.5803 13.3935 42.9861 14.4378 43.6713C14.9435 44.0039 15.5465 44.1192 16.1408 43.9973C16.7329 43.8731 17.2428 43.5272 17.5754 43.0216L21.5423 36.9682C21.9237 36.3872 22.1255 35.7131 22.1255 35.0169V31.3981C22.1255 29.2561 23.8684 27.5132 26.0103 27.5132H27.0769C29.219 27.5132 30.9618 29.2561 30.9618 31.3981V34.9326C30.9618 36.1832 31.9795 37.1987 33.228 37.1987C33.8332 37.1987 34.4032 36.9637 34.8333 36.5335C35.2613 36.1056 35.4963 35.5357 35.4963 34.9304C35.4941 32.07 35.4941 28.0676 35.4941 28.0676V26.7371C35.4941 24.6661 33.8089 22.9809 31.7379 22.9809H29.0925C28.128 22.9809 27.3408 22.1959 27.3408 21.2291V18.9253C27.3408 18.1736 27.7089 17.4685 28.3231 17.0361L35.9686 11.6856C36.483 11.3263 36.8179 10.7853 36.911 10.1644C37.0019 9.54355 36.8401 8.92933 36.4542 8.43486C35.7114 7.48359 34.3566 7.28183 33.3698 7.97368L26.6578 12.6701C25.4361 13.5237 24.0037 13.9783 22.5114 13.9805L18.325 13.9872C16.5598 13.9894 14.9279 14.8741 13.9589 16.3509L8.04511 25.3713C7.35998 26.4179 7.65263 27.8259 8.69928 28.511Z" fill="#01A3E8"/>
<path d="M20.8598 10.5015C23.1593 10.5015 25.0285 8.63005 25.0285 6.33282V5.16647C25.0285 2.86929 23.1593 1 20.8598 1C18.5627 1 16.6934 2.86929 16.6934 5.16647V6.33282C16.6934 8.63005 18.5627 10.5015 20.8598 10.5015Z" fill="#01A3E8"/>
<path d="M44.3284 35L46.0735 38.5833C46.2089 38.8604 46.0935 39.1908 45.8186 39.3261L29.3568 47.3442C29.2237 47.4107 29.0684 47.4196 28.9265 47.3663C28.7868 47.3176 28.6715 47.2111 28.6095 47.0736L25.7224 40.692L3.25586 51.637L4.89454 55.0008L23.3853 45.9938C23.5205 45.9273 23.6758 45.9206 23.8155 45.9694C23.9574 46.0204 24.0705 46.1268 24.1325 46.2621L27.0218 52.6437L47.4594 42.6899C47.5902 42.6256 47.7433 42.6167 47.883 42.6655C48.0205 42.7121 48.1357 42.8141 48.2 42.9471L49.8431 46.3175L54.4818 37.0555L44.3284 35Z" fill="#01A3E8"/>
</svg>
