<svg width="56" height="56" viewBox="0 0 56 56" fill="none" xmlns="http://www.w3.org/2000/svg">
<path d="M46.75 48H31.75V46.75C31.75 46.4185 31.6183 46.1005 31.3839 45.8661C31.1495 45.6317 30.8315 45.5 30.5 45.5H29.25V44.25C37.8875 43.975 44.25 40.85 44.25 36.75V10.5C44.25 6.225 37.2625 3 28 3C18.7375 3 11.75 6.225 11.75 10.5V36.75C11.75 40.825 18.1125 43.95 26.75 44.25V45.5H25.5C25.1685 45.5 24.8505 45.6317 24.6161 45.8661C24.3817 46.1005 24.25 46.4185 24.25 46.75V48H9.25C8.91848 48 8.60054 48.1317 8.36612 48.3661C8.1317 48.6005 8 48.9185 8 49.25C8 49.5815 8.1317 49.8995 8.36612 50.1339C8.60054 50.3683 8.91848 50.5 9.25 50.5H24.25V51.75C24.25 52.0815 24.3817 52.3995 24.6161 52.6339C24.8505 52.8683 25.1685 53 25.5 53H30.5C30.8315 53 31.1495 52.8683 31.3839 52.6339C31.6183 52.3995 31.75 52.0815 31.75 51.75V50.5H46.75C47.0815 50.5 47.3995 50.3683 47.6339 50.1339C47.8683 49.8995 48 49.5815 48 49.25C48 48.9185 47.8683 48.6005 47.6339 48.3661C47.3995 48.1317 47.0815 48 46.75 48ZM24.25 38C24.25 38.2472 24.1767 38.4889 24.0393 38.6945C23.902 38.9 23.7068 39.0602 23.4784 39.1548C23.2499 39.2495 22.9986 39.2742 22.7561 39.226C22.5137 39.1777 22.2909 39.0587 22.1161 38.8839C21.9413 38.7091 21.8223 38.4863 21.774 38.2439C21.7258 38.0014 21.7505 37.7501 21.8452 37.5216C21.9398 37.2932 22.1 37.098 22.3055 36.9607C22.5111 36.8233 22.7528 36.75 23 36.75C23.3315 36.75 23.6495 36.8817 23.8839 37.1161C24.1183 37.3505 24.25 37.6685 24.25 38ZM21.75 20.5C21.75 20.2528 21.8233 20.0111 21.9607 19.8055C22.098 19.6 22.2932 19.4398 22.5216 19.3451C22.7501 19.2505 23.0014 19.2258 23.2439 19.274C23.4863 19.3223 23.7091 19.4413 23.8839 19.6161C24.0587 19.7909 24.1778 20.0137 24.226 20.2561C24.2742 20.4986 24.2495 20.7499 24.1549 20.9784C24.0602 21.2068 23.9 21.402 23.6945 21.5393C23.4889 21.6767 23.2472 21.75 23 21.75C22.6685 21.75 22.3505 21.6183 22.1161 21.3839C21.8817 21.1495 21.75 20.8315 21.75 20.5ZM31.75 20.5C31.75 20.2528 31.8233 20.0111 31.9607 19.8055C32.098 19.6 32.2932 19.4398 32.5216 19.3451C32.7501 19.2505 33.0014 19.2258 33.2439 19.274C33.4863 19.3223 33.7091 19.4413 33.8839 19.6161C34.0587 19.7909 34.1778 20.0137 34.226 20.2561C34.2742 20.4986 34.2495 20.7499 34.1549 20.9784C34.0602 21.2068 33.9 21.402 33.6945 21.5393C33.4889 21.6767 33.2472 21.75 33 21.75C32.6685 21.75 32.3505 21.6183 32.1161 21.3839C31.8817 21.1495 31.75 20.8315 31.75 20.5ZM34.25 38C34.25 38.2472 34.1767 38.4889 34.0393 38.6945C33.902 38.9 33.7068 39.0602 33.4784 39.1548C33.2499 39.2495 32.9986 39.2742 32.7561 39.226C32.5137 39.1777 32.2909 39.0587 32.1161 38.8839C31.9413 38.7091 31.8223 38.4863 31.774 38.2439C31.7258 38.0014 31.7505 37.7501 31.8452 37.5216C31.9398 37.2932 32.1 37.098 32.3055 36.9607C32.5111 36.8233 32.7528 36.75 33 36.75C33.3315 36.75 33.6495 36.8817 33.8839 37.1161C34.1183 37.3505 34.25 37.6685 34.25 38ZM28 30.5C27.7528 30.5 27.5111 30.4267 27.3055 30.2893C27.1 30.152 26.9398 29.9568 26.8452 29.7284C26.7505 29.4999 26.7258 29.2486 26.774 29.0061C26.8223 28.7637 26.9413 28.5409 27.1161 28.3661C27.2909 28.1913 27.5137 28.0723 27.7561 28.024C27.9986 27.9758 28.2499 28.0005 28.4784 28.0951C28.7068 28.1898 28.902 28.35 29.0393 28.5555C29.1767 28.7611 29.25 29.0028 29.25 29.25C29.25 29.5815 29.1183 29.8995 28.8839 30.1339C28.6495 30.3683 28.3315 30.5 28 30.5ZM33 30.5C32.7528 30.5 32.5111 30.4267 32.3055 30.2893C32.1 30.152 31.9398 29.9568 31.8452 29.7284C31.7505 29.4999 31.7258 29.2486 31.774 29.0061C31.8223 28.7637 31.9413 28.5409 32.1161 28.3661C32.2909 28.1913 32.5137 28.0723 32.7561 28.024C32.9986 27.9758 33.2499 28.0005 33.4784 28.0951C33.7068 28.1898 33.902 28.35 34.0393 28.5555C34.1767 28.7611 34.25 29.0028 34.25 29.25C34.25 29.5815 34.1183 29.8995 33.8839 30.1339C33.6495 30.3683 33.3315 30.5 33 30.5ZM23 28C23.2472 28 23.4889 28.0733 23.6945 28.2107C23.9 28.348 24.0602 28.5432 24.1549 28.7716C24.2495 29.0001 24.2742 29.2514 24.226 29.4939C24.1778 29.7363 24.0587 29.9591 23.8839 30.1339C23.7091 30.3087 23.4863 30.4277 23.2439 30.476C23.0014 30.5242 22.7501 30.4995 22.5216 30.4049C22.2932 30.3102 22.098 30.15 21.9607 29.9445C21.8233 29.7389 21.75 29.4972 21.75 29.25C21.75 28.9185 21.8817 28.6005 22.1161 28.3661C22.3505 28.1317 22.6685 28 23 28ZM28 21.75C27.7528 21.75 27.5111 21.6767 27.3055 21.5393C27.1 21.402 26.9398 21.2068 26.8452 20.9784C26.7505 20.7499 26.7258 20.4986 26.774 20.2561C26.8223 20.0137 26.9413 19.7909 27.1161 19.6161C27.2909 19.4413 27.5137 19.3223 27.7561 19.274C27.9986 19.2258 28.2499 19.2505 28.4784 19.3451C28.7068 19.4398 28.902 19.6 29.0393 19.8055C29.1767 20.0111 29.25 20.2528 29.25 20.5C29.25 20.8315 29.1183 21.1495 28.8839 21.3839C28.6495 21.6183 28.3315 21.75 28 21.75ZM28 36.75C28.2472 36.75 28.4889 36.8233 28.6945 36.9607C28.9 37.098 29.0602 37.2932 29.1549 37.5216C29.2495 37.7501 29.2742 38.0014 29.226 38.2439C29.1778 38.4863 29.0587 38.7091 28.8839 38.8839C28.7091 39.0587 28.4863 39.1777 28.2439 39.226C28.0014 39.2742 27.7501 39.2495 27.5216 39.1548C27.2932 39.0602 27.098 38.9 26.9607 38.6945C26.8233 38.4889 26.75 38.2472 26.75 38C26.75 37.6685 26.8817 37.3505 27.1161 37.1161C27.3505 36.8817 27.6685 36.75 28 36.75ZM28 5.5C35.875 5.5 41.75 8.1375 41.75 10.5C41.75 11.575 40.5 12.775 38.2375 13.725C34.9678 14.9583 31.494 15.5606 28 15.5C24.506 15.5606 21.0322 14.9583 17.7625 13.725C15.5625 12.775 14.25 11.575 14.25 10.5C14.25 8.1375 20.125 5.5 28 5.5ZM29.25 50.5H26.75V48H29.25V50.5Z" fill="#01A3E8"/>
<path d="M24.25 11.75H31.75C32.0815 11.75 32.3995 11.6183 32.6339 11.3839C32.8683 11.1495 33 10.8315 33 10.5C33 10.1685 32.8683 9.85054 32.6339 9.61612C32.3995 9.3817 32.0815 9.25 31.75 9.25H24.25C23.9185 9.25 23.6005 9.3817 23.3661 9.61612C23.1317 9.85054 23 10.1685 23 10.5C23 10.8315 23.1317 11.1495 23.3661 11.3839C23.6005 11.6183 23.9185 11.75 24.25 11.75Z" fill="#01A3E8"/>
</svg>
