<svg width="56" height="56" viewBox="0 0 56 56" fill="none" xmlns="http://www.w3.org/2000/svg">
<path d="M49.3961 27.4462H51.6005C51.843 27.4416 52.0741 27.3419 52.244 27.1687C52.4139 26.9956 52.509 26.7626 52.5091 26.52C52.5091 26.2774 52.4139 26.0445 52.244 25.8713C52.0741 25.6981 51.8431 25.5985 51.6005 25.5938H47.1639C46.9185 25.5945 46.6833 25.6923 46.5098 25.8658C46.3362 26.0394 46.2384 26.2746 46.2377 26.52V30.9659C46.2385 31.2111 46.3364 31.4459 46.51 31.619C46.6836 31.792 46.9188 31.8892 47.1639 31.8892C47.4091 31.8892 47.6442 31.792 47.8178 31.619C47.9914 31.4459 48.0894 31.2111 48.0901 30.9659V28.7707C50.6156 31.3528 52.0213 34.8265 52.0022 38.4383C51.9832 42.05 50.5409 45.5087 47.9883 48.064C34.5839 60.4129 16.2408 42.0449 28.5838 28.6596C42.5697 13.4248 21.7964 -7.36522 6.54886 6.62468C3.65232 9.53383 2.01845 13.467 2.00112 17.5722C1.98378 21.6774 3.58439 25.6242 6.45626 28.5577H4.25183C4.00931 28.5625 3.77833 28.6621 3.6085 28.8353C3.43867 29.0085 3.34354 29.2414 3.34355 29.484C3.34355 29.7265 3.4387 29.9594 3.60854 30.1326C3.77839 30.3058 4.00938 30.4054 4.2519 30.4102H8.68844C8.93387 30.4094 9.16905 30.3116 9.34259 30.1381C9.51614 29.9645 9.61396 29.7294 9.61467 29.4839V25.0381C9.61 24.7956 9.51037 24.5645 9.33719 24.3946C9.164 24.2247 8.93108 24.1295 8.68847 24.1295C8.44586 24.1295 8.21293 24.2247 8.03974 24.3946C7.86654 24.5644 7.76689 24.7955 7.76221 25.0381V27.2332C5.23671 24.6511 3.83105 21.1774 3.85011 17.5657C3.86917 13.9539 5.31142 10.4952 7.86403 7.93994C21.269 -4.40921 39.6114 13.9597 27.2685 27.3443C24.3545 30.2705 22.7185 34.2321 22.7185 38.3618C22.7185 42.4915 24.3545 46.453 27.2685 49.3792C42.4288 63.3113 63.2081 42.7281 49.3961 27.4462Z" fill="#01A3E8" stroke="#01A3E8" stroke-width="0.7"/>
<path d="M24.3599 25.4827L25.3973 24.436C25.5514 24.2823 25.6737 24.0997 25.7571 23.8987C25.8406 23.6976 25.8835 23.4821 25.8835 23.2644C25.8835 23.0467 25.8406 22.8312 25.7571 22.6301C25.6737 22.4291 25.5514 22.2464 25.3973 22.0927L24.8415 21.537C25.4362 20.423 25.7658 19.1869 25.8048 17.9247L26.5735 17.7117C26.9985 17.5986 27.3611 17.3214 27.5817 16.941C27.8023 16.5607 27.8628 16.1082 27.7498 15.6833L27.3701 14.2568C27.253 13.8349 26.9746 13.476 26.595 13.2577C26.2155 13.0393 25.7653 12.979 25.3417 13.0898L24.5729 13.2936C23.905 12.222 23.0024 11.3162 21.9332 10.6446L22.1369 9.8758C22.2479 9.4509 22.1865 8.99938 21.9662 8.61949C21.7459 8.2396 21.3845 7.9621 20.9606 7.84736L19.5342 7.45836C19.1094 7.3486 18.6584 7.41047 18.2788 7.63059C17.8992 7.85071 17.6215 8.21139 17.5058 8.63463L17.302 9.40342C16.0399 9.44236 14.8037 9.772 13.6897 10.3667L13.1247 9.80168C12.971 9.64754 12.7884 9.52524 12.5874 9.4418C12.3863 9.35835 12.1707 9.3154 11.9531 9.3154C11.7354 9.3154 11.5198 9.35835 11.3188 9.4418C11.1177 9.52524 10.9351 9.64754 10.7814 9.80168L9.73472 10.8483C9.58058 11.002 9.45829 11.1846 9.37484 11.3857C9.2914 11.5868 9.24844 11.8023 9.24844 12.02C9.24844 12.2377 9.2914 12.4532 9.37484 12.6543C9.45829 12.8553 9.58058 13.038 9.73472 13.1917L10.2905 13.7474C9.70113 14.8635 9.3718 16.0984 9.32718 17.3597L8.55846 17.5727C8.13459 17.6875 7.77319 17.965 7.55289 18.3449C7.33259 18.7247 7.27122 19.1762 7.38213 19.6011L7.76186 21.0275C7.87883 21.452 8.15818 21.8134 8.53951 22.0335C8.92084 22.2536 9.37349 22.3148 9.79957 22.2038L10.5591 21.9908C11.2253 23.0668 12.1321 23.9736 13.2081 24.6398L12.9951 25.4086C12.883 25.8335 12.9438 26.2856 13.1643 26.6657C13.3848 27.0459 13.7469 27.3232 14.1714 27.437L15.5978 27.826C16.0227 27.937 16.4742 27.8756 16.8541 27.6553C17.234 27.435 17.5115 27.0735 17.6262 26.6496L17.8299 25.8809C19.0951 25.842 20.3342 25.5124 21.4515 24.9176L22.0072 25.4826C22.3195 25.794 22.7425 25.9689 23.1835 25.9689C23.6246 25.969 24.0476 25.7941 24.3599 25.4827ZM20.8124 20.8886C16.4117 25.0524 10.1578 18.7871 14.3197 14.3957C18.7125 10.2325 24.9787 16.4929 20.8124 20.8886Z" fill="#01A3E8"/>
<path d="M15.6354 15.7109C13.1418 18.2886 16.9208 22.0833 19.4977 19.5733C20.0017 19.0595 20.2825 18.3674 20.279 17.6477C20.2755 16.9279 19.988 16.2386 19.4791 15.7297C18.9701 15.2207 18.2809 14.9332 17.5611 14.9297C16.8414 14.9262 16.1493 15.2069 15.6354 15.7109Z" fill="#01A3E8"/>
<path d="M31.4925 30.5214L30.4551 31.5681C30.301 31.7218 30.1787 31.9044 30.0953 32.1055C30.0118 32.3065 29.9689 32.5221 29.9689 32.7397C29.9689 32.9574 30.0118 33.173 30.0953 33.374C30.1787 33.5751 30.301 33.7577 30.4551 33.9114L31.0109 34.4671C30.4162 35.5811 30.0865 36.8173 30.0476 38.0794L29.2788 38.2925C28.8539 38.4055 28.4912 38.6827 28.2706 39.0631C28.0501 39.4435 27.9896 39.8959 28.1025 40.3209L28.4822 41.7473C28.5994 42.1692 28.8778 42.5281 29.2573 42.7464C29.6369 42.9648 30.087 43.0251 30.5107 42.9143L31.2795 42.7106C31.9474 43.7821 32.85 44.6879 33.9192 45.3596C33.7694 45.6757 33.6887 46.0201 33.6823 46.3698C33.6759 46.7195 33.7441 47.0666 33.8822 47.388C34.2512 48.1981 35.5898 48.3006 36.3182 48.5458C36.7431 48.6574 37.1949 48.5963 37.575 48.3759C37.955 48.1555 38.2324 47.7937 38.3466 47.3695L38.5503 46.6007C39.8125 46.5618 41.0487 46.2321 42.1626 45.6374L42.7276 46.2024C42.8813 46.3565 43.064 46.4788 43.265 46.5623C43.4661 46.6457 43.6816 46.6887 43.8993 46.6887C44.117 46.6887 44.3326 46.6457 44.5336 46.5623C44.7347 46.4788 44.9173 46.3565 45.071 46.2024L46.1176 45.1558C46.2718 45.002 46.3941 44.8194 46.4775 44.6184C46.561 44.4173 46.6039 44.2018 46.6039 43.9841C46.6039 43.7664 46.561 43.5509 46.4775 43.3498C46.3941 43.1488 46.2718 42.9662 46.1176 42.8124L45.5619 42.2567C46.1512 41.1407 46.4806 39.9057 46.5252 38.6444L47.2939 38.4314C47.7178 38.3166 48.0792 38.0391 48.2995 37.6593C48.5198 37.2794 48.5812 36.8279 48.4702 36.403L48.0905 34.9765C47.9735 34.5521 47.6942 34.1907 47.3128 33.9706C46.9315 33.7505 46.4789 33.6893 46.0528 33.8003L45.2933 34.0133C44.6271 32.9373 43.7203 32.0305 42.6443 31.3643C42.7982 31.0497 42.882 30.7054 42.89 30.3552C42.898 30.005 42.8299 29.6572 42.6905 29.3359C42.5826 29.1465 42.4375 28.9808 42.2641 28.8487C42.0906 28.7166 41.8923 28.6208 41.681 28.5671C40.9189 28.4198 39.7316 27.815 38.995 28.3449C38.3468 28.666 38.1765 29.4854 38.0225 30.1232C36.7574 30.1621 35.5182 30.4917 34.4009 31.0864L33.8451 30.5214C33.5329 30.21 33.1098 30.0352 32.6688 30.0351C32.2278 30.0351 31.8048 30.21 31.4925 30.5214ZM35.0401 35.1154C39.436 30.9503 45.7038 37.2182 41.5328 41.6084C37.1352 45.7708 30.8771 39.5103 35.0401 35.1154Z" fill="#01A3E8"/>
<path d="M40.2172 40.293C40.7207 39.779 41.001 39.0872 40.9973 38.3677C40.9935 37.6483 40.7061 36.9593 40.1973 36.4506C39.6886 35.9418 38.9997 35.6544 38.2802 35.6506C37.5608 35.6469 36.8689 35.9271 36.3549 36.4306C33.8453 39.0067 37.64 42.7937 40.2172 40.293Z" fill="#01A3E8"/>
</svg>
