<svg width="56" height="56" viewBox="0 0 56 56" fill="none" xmlns="http://www.w3.org/2000/svg">
<path d="M51.9957 37.6817C51.8832 31.4193 51.1436 25.0865 49.9305 18.6947C48.9423 14.2539 45.3874 10.2986 39.7072 10.0089C35.5138 9.83642 34.7028 12.2251 29.9517 12.1792C28.6504 12.1708 27.3501 12.1708 26.0489 12.1792C21.2968 12.2251 20.484 9.83642 16.2925 10.0089C10.6113 10.2986 6.94571 14.2435 6.06541 18.6947C4.85137 25.0865 4.11169 31.4183 4.00013 37.6807C3.97294 42.041 8.27788 44.9416 11.1185 45.1403C16.6056 45.5547 20.9649 35.8789 24.2864 35.8779C26.7623 35.892 29.2373 35.8929 31.7132 35.8779C35.0357 35.8779 39.3912 45.5556 44.8821 45.1413C47.7217 44.9425 52.1382 42.0222 51.9967 37.6817H51.9957ZM21.8968 25.4625H19.3374V28.0218C19.3374 29.1018 18.4618 29.9774 17.3818 29.9774C16.3018 29.9774 15.4262 29.1018 15.4262 28.0218V25.4625H12.8669C11.7869 25.4625 10.9113 24.5868 10.9113 23.5069C10.9113 22.4269 11.7869 21.5513 12.8669 21.5513H15.4262V18.9919C15.4262 17.9119 16.3018 17.0363 17.3818 17.0363C18.4618 17.0363 19.3374 17.9119 19.3374 18.9919V21.5513H21.8968C22.9768 21.5513 23.8524 22.4269 23.8524 23.5069C23.8524 24.5868 22.9768 25.4625 21.8968 25.4625ZM37.7 29.9765C36.1691 30.0177 34.896 28.8084 34.8547 27.2784C34.8144 25.7428 36.0247 24.4678 37.5547 24.4284C39.0865 24.39 40.3615 25.5984 40.4009 27.1302C40.4393 28.6621 39.2309 29.9371 37.7 29.9765ZM42.3171 22.5844C40.7862 22.6275 39.5103 21.4172 39.4681 19.8863C39.4297 18.3526 40.6381 17.0794 42.1699 17.0373C43.7037 16.9969 44.9768 18.2072 45.018 19.7391C45.0583 21.27 43.8471 22.5459 42.3171 22.5844Z" fill="#01A3E8"/>
</svg>
