<svg width="114" height="36" viewBox="0 0 114 36" fill="none" xmlns="http://www.w3.org/2000/svg">
<circle cx="18" cy="18" r="18" fill="#01A3E8"/>
<path fill-rule="evenodd" clip-rule="evenodd" d="M21.1016 35.7338L10.6299 25.262L25.262 10.6299L35.7337 21.1017C34.4388 28.5571 28.5571 34.4389 21.1016 35.7338Z" fill="#115BC9"/>
<path fill-rule="evenodd" clip-rule="evenodd" d="M10.6839 25.3161C14.7245 29.3566 21.2755 29.3566 25.3161 25.3161C25.3186 25.3135 25.3212 25.3109 25.3238 25.3083L25.316 25.3161L18 18L25.3161 10.684C21.2755 6.64341 14.7245 6.64341 10.6839 10.684C6.6434 14.7245 6.6434 21.2755 10.6839 25.3161Z" fill="white"/>
<path d="M52.2277 28.3846C50.2431 28.3846 48.5585 27.9462 47.1739 27.0692C45.7892 26.1923 44.7323 24.9738 44.0031 23.4138C43.2831 21.8538 42.9231 20.0492 42.9231 18C42.9231 15.9508 43.2831 14.1462 44.0031 12.5862C44.7323 11.0262 45.7892 9.80769 47.1739 8.93077C48.5585 8.05385 50.2431 7.61539 52.2277 7.61539C54.5354 7.61539 56.4323 8.20154 57.9185 9.37385C59.4139 10.5462 60.4431 12.1246 61.0062 14.1092L58.5 14.7738C58.0939 13.2877 57.3692 12.1154 56.3262 11.2569C55.2831 10.3985 53.9169 9.96923 52.2277 9.96923C50.7416 9.96923 49.5046 10.3062 48.5169 10.98C47.5293 11.6538 46.7862 12.5954 46.2877 13.8046C45.7892 15.0046 45.5354 16.4031 45.5262 18C45.5169 19.5877 45.7616 20.9862 46.26 22.1954C46.7585 23.3954 47.5062 24.3369 48.5031 25.02C49.5 25.6938 50.7416 26.0308 52.2277 26.0308C53.9169 26.0308 55.2831 25.6015 56.3262 24.7431C57.3692 23.8754 58.0939 22.7031 58.5 21.2262L61.0062 21.8908C60.4431 23.8662 59.4139 25.4446 57.9185 26.6262C56.4323 27.7985 54.5354 28.3846 52.2277 28.3846Z" fill="#2C2C2C"/>
<path d="M70.772 28.3846C69.4797 28.3846 68.3259 28.0938 67.3105 27.5123C66.3043 26.9215 65.5059 26.1231 64.9151 25.1169C64.3336 24.1015 64.0428 22.9477 64.0428 21.6554V14.3446C64.0428 13.0523 64.3336 11.8985 64.9151 10.8831C65.5059 9.86769 66.3043 9.06923 67.3105 8.48769C68.3259 7.90616 69.4797 7.61539 70.772 7.61539C72.0643 7.61539 73.2182 7.90616 74.2336 8.48769C75.249 9.06923 76.0474 9.86769 76.629 10.8831C77.2105 11.8985 77.5013 13.0523 77.5013 14.3446V21.6554C77.5013 22.9477 77.2105 24.1015 76.629 25.1169C76.0474 26.1231 75.249 26.9215 74.2336 27.5123C73.2182 28.0938 72.0643 28.3846 70.772 28.3846ZM70.772 26.0169C71.5567 26.0169 72.2674 25.8277 72.9043 25.4492C73.5413 25.0708 74.049 24.5631 74.4274 23.9262C74.8059 23.28 74.9951 22.5692 74.9951 21.7938V14.1923C74.9951 13.4077 74.8059 12.6969 74.4274 12.06C74.049 11.4231 73.5413 10.9154 72.9043 10.5369C72.2674 10.1585 71.5567 9.96923 70.772 9.96923C69.9967 9.96923 69.2859 10.1585 68.6397 10.5369C68.0028 10.9154 67.4951 11.4231 67.1167 12.06C66.7382 12.6969 66.549 13.4077 66.549 14.1923V21.7938C66.549 22.5692 66.7382 23.28 67.1167 23.9262C67.4951 24.5631 68.0028 25.0708 68.6397 25.4492C69.2859 25.8277 69.9967 26.0169 70.772 26.0169Z" fill="#01A3E8"/>
<path d="M81.3775 27.9692V8.03077H87.5252C87.7283 8.03077 88.0837 8.03539 88.5914 8.04462C89.0991 8.05385 89.5837 8.09077 90.0452 8.15539C91.5868 8.35846 92.8745 8.92154 93.9083 9.84462C94.9514 10.7585 95.736 11.9215 96.2622 13.3338C96.7883 14.7462 97.0514 16.3015 97.0514 18C97.0514 19.6985 96.7883 21.2538 96.2622 22.6662C95.736 24.0785 94.9514 25.2462 93.9083 26.1692C92.8745 27.0831 91.5868 27.6415 90.0452 27.8446C89.5837 27.9 89.0945 27.9369 88.5775 27.9554C88.0699 27.9646 87.7191 27.9692 87.5252 27.9692H81.3775ZM83.9114 25.6154H87.5252C87.876 25.6154 88.2683 25.6062 88.7022 25.5877C89.136 25.56 89.5145 25.5185 89.8375 25.4631C90.9268 25.26 91.8083 24.8031 92.4822 24.0923C93.156 23.3815 93.6499 22.4954 93.9637 21.4338C94.2775 20.3723 94.4345 19.2277 94.4345 18C94.4345 16.7446 94.2729 15.5862 93.9499 14.5246C93.636 13.4631 93.1422 12.5815 92.4683 11.88C91.7945 11.1785 90.9175 10.7308 89.8375 10.5369C89.5145 10.4723 89.1314 10.4308 88.6883 10.4123C88.2452 10.3938 87.8575 10.3846 87.5252 10.3846H83.9114V25.6154Z" fill="#2C2C2C"/>
<path d="M100.227 27.9692V8.03077H112.827V10.3708H102.691V16.6154H111.165V18.9554H102.691V25.6292H112.827V27.9692H100.227Z" fill="#2C2C2C"/>
</svg>
