<svg width="56" height="56" viewBox="0 0 56 56" fill="none" xmlns="http://www.w3.org/2000/svg">
<path d="M16.9559 1C14.6602 1 12.7559 2.90434 12.7559 5.2V50.8C12.7559 53.0957 14.6602 55 16.9559 55H42.1559C44.4515 55 46.3559 53.0957 46.3559 50.8V5.2C46.3559 2.90434 44.4515 1 42.1559 1H16.9559ZM16.9559 4.6H42.1559C42.5194 4.6 42.7559 4.83645 42.7559 5.2V7H16.3559V5.2C16.3559 4.83645 16.5923 4.6 16.9559 4.6ZM16.3559 10.6H42.7559V43H16.3559V10.6ZM16.3559 46.6H42.7559V50.8C42.7559 51.1635 42.5194 51.4 42.1559 51.4H16.9559C16.5923 51.4 16.3559 51.1635 16.3559 50.8V46.6ZM29.5559 47.2C28.5618 47.2 27.7559 48.0059 27.7559 49C27.7559 49.9941 28.5618 50.8 29.5559 50.8C30.55 50.8 31.3559 49.9941 31.3559 49C31.3559 48.0059 30.55 47.2 29.5559 47.2Z" fill="#01A3E8"/>
<rect x="15.9961" y="3.15997" width="28.08" height="5.4" fill="#01A3E8"/>
<path d="M38.6755 22.6919C38.6755 22.6601 38.6679 22.6297 38.6637 22.5989C38.6599 22.5739 38.6604 22.5484 38.6537 22.5239C38.6457 22.4931 38.631 22.4657 38.6187 22.4368C38.6092 22.4143 38.6031 22.3903 38.5912 22.3692C38.5747 22.3399 38.5524 22.3149 38.5316 22.2885C38.5183 22.2713 38.5079 22.2517 38.4928 22.2361C38.4544 22.1959 38.4104 22.1612 38.3621 22.1318L30.2483 17.2869C30.0537 17.1704 29.8142 17.1714 29.6196 17.2879L21.7369 22.0251C21.7364 22.0251 21.7359 22.0256 21.7359 22.0256L21.734 22.0265C21.7156 22.0373 21.7018 22.053 21.6848 22.0657C21.6573 22.0863 21.628 22.1054 21.6048 22.1298C21.5873 22.148 21.5749 22.1705 21.5598 22.1905C21.5418 22.2145 21.5214 22.2366 21.5068 22.2625C21.4935 22.2865 21.4859 22.3139 21.4755 22.3394C21.4651 22.3653 21.4514 22.3898 21.4443 22.4167C21.4372 22.4446 21.4367 22.474 21.4329 22.5029C21.4296 22.5303 21.4225 22.5567 21.422 22.5847L21.3955 32.226C21.395 32.458 21.5143 32.6729 21.7089 32.789L29.8227 37.6334C29.9198 37.6911 30.0277 37.72 30.1361 37.72C30.1906 37.72 30.2445 37.7127 30.2976 37.698C30.3084 37.695 30.3184 37.6882 30.3288 37.6848C30.37 37.6711 30.4107 37.6564 30.4486 37.6338C30.4491 37.6334 30.4495 37.6329 30.45 37.6324L38.3365 32.8928C38.5292 32.7772 38.6481 32.5647 38.6485 32.3341L38.675 22.6929C38.675 22.6929 38.6755 22.6924 38.6755 22.6919C38.676 22.6929 38.6755 22.6924 38.6755 22.6919ZM29.9359 18.5975L36.7979 22.6943L32.5852 25.2259L30.1617 26.6824L23.2997 22.5856L29.9359 18.5975ZM22.6728 23.7087L29.5348 27.8055L29.5159 34.6694L29.5126 35.9521L22.6506 31.8553L22.6728 23.7087ZM37.3963 31.9606L30.7663 35.9448L30.7771 31.9572L30.7885 27.8055L37.4185 23.8208L37.3963 31.9606Z" fill="#01A3E8"/>
<path d="M38.6755 22.6919C38.6755 22.6601 38.6679 22.6297 38.6637 22.5989C38.6599 22.5739 38.6604 22.5484 38.6537 22.5239C38.6457 22.4931 38.631 22.4657 38.6187 22.4368C38.6092 22.4143 38.6031 22.3903 38.5912 22.3692C38.5747 22.3399 38.5524 22.3149 38.5316 22.2885C38.5183 22.2713 38.5079 22.2517 38.4928 22.2361C38.4544 22.1959 38.4104 22.1612 38.3621 22.1318L30.2483 17.2869C30.0537 17.1704 29.8142 17.1714 29.6196 17.2879L21.7369 22.0251C21.7364 22.0251 21.7359 22.0256 21.7359 22.0256L21.734 22.0265C21.7156 22.0373 21.7018 22.053 21.6848 22.0657C21.6573 22.0863 21.628 22.1054 21.6048 22.1298C21.5873 22.148 21.5749 22.1705 21.5598 22.1905C21.5418 22.2145 21.5214 22.2366 21.5068 22.2625C21.4935 22.2865 21.4859 22.3139 21.4755 22.3394C21.4651 22.3653 21.4514 22.3898 21.4443 22.4167C21.4372 22.4446 21.4367 22.474 21.4329 22.5029C21.4296 22.5303 21.4225 22.5567 21.422 22.5847L21.3955 32.226C21.395 32.458 21.5143 32.6729 21.7089 32.789L29.8227 37.6334C29.9198 37.6911 30.0277 37.72 30.1361 37.72C30.1906 37.72 30.2445 37.7127 30.2976 37.698C30.3084 37.695 30.3184 37.6882 30.3288 37.6848C30.37 37.6711 30.4107 37.6564 30.4486 37.6338C30.4491 37.6334 30.4495 37.6329 30.45 37.6324L38.3365 32.8928C38.5292 32.7772 38.648 32.5647 38.6485 32.3341L38.675 22.6929C38.675 22.6929 38.6755 22.6924 38.6755 22.6919ZM38.6755 22.6919C38.676 22.6929 38.6755 22.6924 38.6755 22.6919ZM29.9359 18.5975L36.7979 22.6943L32.5852 25.2259L30.1617 26.6824L23.2997 22.5856L29.9359 18.5975ZM22.6728 23.7087L29.5348 27.8055L29.5159 34.6694L29.5126 35.9521L22.6506 31.8553L22.6728 23.7087ZM37.3963 31.9606L30.7663 35.9448L30.7771 31.9572L30.7885 27.8055L37.4185 23.8208L37.3963 31.9606Z" stroke="#01A3E8"/>
<rect x="15.9961" y="46.36" width="28.08" height="5.4" fill="#01A3E8"/>
<circle cx="30.036" cy="48.52" r="2.16" fill="#D5F2FF"/>
</svg>
