<svg width="56" height="56" viewBox="0 0 56 56" fill="none" xmlns="http://www.w3.org/2000/svg">
<path d="M41.7944 20.4447C41.5139 17.2635 40.1263 14.2815 37.8733 12.0181C35.6203 9.75479 32.6447 8.35352 29.4648 8.0584C26.285 7.76328 23.1023 8.59303 20.4713 10.4031C17.8402 12.2132 15.9276 14.8889 15.0664 17.9641C13.4376 18.0089 11.8337 18.3741 10.346 19.0388C8.85839 19.7034 7.51624 20.6546 6.39621 21.838C4.1342 24.2279 2.91424 27.4186 3.00469 30.708C3.09515 33.9974 4.48863 37.1162 6.87856 39.3782C9.2685 41.6402 12.4591 42.8602 15.7486 42.7697V35.328C15.7486 34.3412 16.1406 33.3948 16.8384 32.697C17.5362 31.9992 18.4826 31.6072 19.4694 31.6072H20.7097V30.7018C20.6795 28.6878 21.4433 26.7428 22.8359 25.2876C24.2285 23.8323 26.138 22.9837 28.1513 22.9252C30.125 22.9252 32.0178 23.7093 33.4134 25.1049C34.809 26.5004 35.593 28.3933 35.593 30.3669V31.6072H36.8333C37.8201 31.6072 38.7665 31.9992 39.4643 32.697C40.1621 33.3948 40.5541 34.3412 40.5541 35.328V42.7697H41.7944C43.5838 42.7766 45.3487 42.3532 46.9402 41.5352C48.5317 40.7172 49.9033 39.5286 50.9392 38.0695C51.9752 36.6104 52.6451 34.9237 52.8927 33.1514C53.1402 31.3792 52.9581 29.5734 52.3616 27.8864C51.6041 25.6938 50.1759 23.7953 48.2793 22.4596C46.3827 21.124 44.1139 20.4191 41.7944 20.4447Z" fill="#01A3E8"/>
<path d="M31.6616 26.8445C30.967 26.1492 30.0815 25.6758 29.1175 25.4844C28.1534 25.293 27.1543 25.3923 26.2468 25.7697C25.3392 26.1471 24.5643 26.7855 24.0201 27.6039C23.476 28.4224 23.1872 29.3841 23.1905 30.3669V31.6072H33.1127V30.3669C33.1148 29.7131 32.9877 29.0654 32.7387 28.4609C32.4897 27.8564 32.1236 27.3071 31.6616 26.8445Z" fill="#01A3E8"/>
<path d="M20.71 34.0878H19.4698C19.1408 34.0878 18.8254 34.2184 18.5928 34.451C18.3602 34.6836 18.2295 34.9991 18.2295 35.328V46.4906C18.2295 46.8195 18.3602 47.135 18.5928 47.3676C18.8254 47.6002 19.1408 47.7308 19.4698 47.7308H36.8337C37.1626 47.7308 37.4781 47.6002 37.7107 47.3676C37.9433 47.135 38.0739 46.8195 38.0739 46.4906V35.328C38.0739 34.9991 37.9433 34.6836 37.7107 34.451C37.4781 34.2184 37.1626 34.0878 36.8337 34.0878H20.71ZM28.1517 37.8086C28.7051 37.7997 29.2455 37.9761 29.687 38.3097C30.1286 38.6433 30.4459 39.115 30.5885 39.6497C30.7311 40.1844 30.6908 40.7515 30.474 41.2606C30.2572 41.7698 29.8763 42.1919 29.392 42.4596C29.4109 42.5621 29.4109 42.6672 29.392 42.7697V44.01C29.392 44.3389 29.2613 44.6544 29.0287 44.887C28.7961 45.1196 28.4807 45.2503 28.1517 45.2503C27.8228 45.2503 27.5073 45.1196 27.2747 44.887C27.0421 44.6544 26.9114 44.3389 26.9114 44.01V42.7697C26.8926 42.6672 26.8926 42.5621 26.9114 42.4596C26.4271 42.1919 26.0463 41.7698 25.8295 41.2606C25.6127 40.7515 25.5724 40.1844 25.715 39.6497C25.8575 39.115 26.1749 38.6433 26.6164 38.3097C27.058 37.9761 27.5984 37.7997 28.1517 37.8086Z" fill="#01A3E8"/>
</svg>
