<svg width="38" height="32" viewBox="0 0 38 32" fill="none" xmlns="http://www.w3.org/2000/svg">
<path d="M21.4611 26.8332L24.1 31.4777C31.1722 28.2054 37.8222 20.8166 37.8222 10.9999C37.8222 4.98323 34.0222 0.444336 29.0611 0.444336C24.1 0.444336 21.4611 4.03323 21.4611 7.62212C21.4611 11.7388 24.2055 14.9054 28.4277 14.9054C29.4833 14.9054 30.4333 14.4832 31.0666 14.1666C30.9611 18.1777 27.4777 23.8777 21.4611 26.8332ZM0.772181 26.8332L3.30552 31.4777C10.4833 28.2054 17.0277 20.8166 17.0277 10.9999C17.0277 4.98323 13.2277 0.444336 8.26663 0.444336C3.41107 0.444336 0.666626 4.03323 0.666626 7.62212C0.666626 11.7388 3.41107 14.9054 7.6333 14.9054C8.68885 14.9054 9.74441 14.4832 10.2722 14.1666C10.1666 18.1777 6.68329 23.8777 0.772181 26.8332Z" fill="#D5F2FF"/>
</svg>
